HIERARCHY
ROOT hip
{
  OFFSET 0 0 0
  CHANNELS 6 Xposition Yposition Zposition Zrotation Yrotation Xrotation
  JOINT abdomen
  {
    OFFSET 0 20.6881 -0.73152
    CHANNELS 3 Zrotation Xrotation Yrotation
    JOINT chest
    {
      OFFSET 0 11.7043 -0.48768
      CHANNELS 3 Zrotation Xrotation Yrotation
      JOINT neck
      {
        OFFSET 0 22.1894 -2.19456
        CHANNELS 3 Zrotation Xrotation Yrotation
        JOINT head
        {
          OFFSET -0.24384 7.07133 1.2192
          CHANNELS 3 Zrotation Xrotation Yrotation
          JOINT leftEye
          {
            OFFSET 4.14528 8.04674 8.04672
            CHANNELS 3 Zrotation Xrotation Yrotation
            End Site
            {
              OFFSET 1 0 0
            }
          }
          JOINT rightEye
          {
            OFFSET -3.6576 8.04674 8.04672
            CHANNELS 3 Zrotation Xrotation Yrotation
            End Site
            {
              OFFSET 1 0 0
            }
          }
        }
      }
      JOINT rCollar
      {
        OFFSET -2.68224 19.2634 -4.8768
        CHANNELS 3 Zrotation Xrotation Yrotation
        JOINT rShldr
        {
          OFFSET -8.77824 -1.95073 1.46304
          CHANNELS 3 Zrotation Xrotation Yrotation
          JOINT rForeArm
          {
            OFFSET -28.1742 -1.7115 0.48768
            CHANNELS 3 Zrotation Xrotation Yrotation
            JOINT rHand
            {
              OFFSET -22.5879 0.773209 7.07136
              CHANNELS 3 Zrotation Xrotation Yrotation
              JOINT rThumb1
              {
                OFFSET -1.2192 -0.487915 3.41376
                CHANNELS 3 Zrotation Xrotation Yrotation
                JOINT rThumb2
                {
                  OFFSET -3.37035 -0.52449 3.41376
                  CHANNELS 3 Zrotation Xrotation Yrotation
                  End Site
                  {
                    OFFSET -1.78271 -1.18214 1.43049
                  }
                }
              }
              JOINT rIndex1
              {
                OFFSET -7.75947 0.938293 5.60832
                CHANNELS 3 Zrotation Xrotation Yrotation
                JOINT rIndex2
                {
                  OFFSET -2.54057 -0.884171 1.56538
                  CHANNELS 3 Zrotation Xrotation Yrotation
                  End Site
                  {
                    OFFSET -1.62519 -0.234802 1.16502
                  }
                }
              }
              JOINT rMid1
              {
                OFFSET -8.24714 1.18213 3.41376
                CHANNELS 3 Zrotation Xrotation Yrotation
                JOINT rMid2
                {
                  OFFSET -3.10165 -0.590103 1.0647
                  CHANNELS 3 Zrotation Xrotation Yrotation
                  End Site
                  {
                    OFFSET -2.48547 -0.328903 0.83742
                  }
                }
              }
              JOINT rRing1
              {
                OFFSET -8.82822 0.546677 1.51678
                CHANNELS 3 Zrotation Xrotation Yrotation
                JOINT rRing2
                {
                  OFFSET -2.60934 -0.819778 -0.0198488
                  CHANNELS 3 Zrotation Xrotation Yrotation
                  End Site
                  {
                    OFFSET -2.33842 -0.294052 0.168128
                  }
                }
              }
              JOINT rPinky1
              {
                OFFSET -8.27202 -0.0477905 -0.4584
                CHANNELS 3 Zrotation Xrotation Yrotation
                JOINT rPinky2
                {
                  OFFSET -1.82734 -0.647385 -0.700984
                  CHANNELS 3 Zrotation Xrotation Yrotation
                  End Site
                  {
                    OFFSET -1.69225 -0.51767 -0.607171
                  }
                }
              }
            }
          }
        }
      }
      JOINT lCollar
      {
        OFFSET 2.68224 19.2634 -4.8768
        CHANNELS 3 Zrotation Xrotation Yrotation
        JOINT lShldr
        {
          OFFSET 8.77824 -1.95073 1.46304
          CHANNELS 3 Zrotation Xrotation Yrotation
          JOINT lForeArm
          {
            OFFSET 28.1742 -1.7115 0.48768
            CHANNELS 3 Zrotation Xrotation Yrotation
            JOINT lHand
            {
              OFFSET 22.5879 0.773209 7.07136
              CHANNELS 3 Zrotation Xrotation Yrotation
              JOINT lThumb1
              {
                OFFSET 1.2192 -0.487915 3.41376
                CHANNELS 3 Zrotation Xrotation Yrotation
                JOINT lThumb2
                {
                  OFFSET 3.37035 -0.52449 3.41376
                  CHANNELS 3 Zrotation Xrotation Yrotation
                  End Site
                  {
                    OFFSET 1.78271 -1.18214 1.43049
                  }
                }
              }
              JOINT lIndex1
              {
                OFFSET 7.75947 0.938293 5.60832
                CHANNELS 3 Zrotation Xrotation Yrotation
                JOINT lIndex2
                {
                  OFFSET 2.54057 -0.884171 1.56538
                  CHANNELS 3 Zrotation Xrotation Yrotation
                  End Site
                  {
                    OFFSET 1.62519 -0.234802 1.16502
                  }
                }
              }
              JOINT lMid1
              {
                OFFSET 8.24714 1.18213 3.41376
                CHANNELS 3 Zrotation Xrotation Yrotation
                JOINT lMid2
                {
                  OFFSET 3.10165 -0.590103 1.0647
                  CHANNELS 3 Zrotation Xrotation Yrotation
                  End Site
                  {
                    OFFSET 2.48547 -0.328903 0.83742
                  }
                }
              }
              JOINT lRing1
              {
                OFFSET 8.82822 0.546677 1.51678
                CHANNELS 3 Zrotation Xrotation Yrotation
                JOINT lRing2
                {
                  OFFSET 2.60934 -0.819778 -0.0198488
                  CHANNELS 3 Zrotation Xrotation Yrotation
                  End Site
                  {
                    OFFSET 2.33842 -0.294052 0.168128
                  }
                }
              }
              JOINT lPinky1
              {
                OFFSET 8.27202 -0.0477905 -0.4584
                CHANNELS 3 Zrotation Xrotation Yrotation
                JOINT lPinky2
                {
                  OFFSET 1.82734 -0.647385 -0.700984
                  CHANNELS 3 Zrotation Xrotation Yrotation
                  End Site
                  {
                    OFFSET 1.69225 -0.51767 -0.607171
                  }
                }
              }
            }
          }
        }
      }
    }
  }
  JOINT rButtock
  {
    OFFSET -8.77824 4.35084 1.2192
    CHANNELS 3 Zrotation Xrotation Yrotation
    JOINT rThigh
    {
      OFFSET 0 -1.70687 -2.19456
      CHANNELS 3 Zrotation Xrotation Yrotation
      JOINT rShin
      {
        OFFSET 0 -36.8199 0.73152
        CHANNELS 3 Zrotation Xrotation Yrotation
        JOINT rFoot
        {
          OFFSET 0.73152 -45.1104 -5.12064
          CHANNELS 3 Zrotation Xrotation Yrotation
          End Site
          {
            OFFSET -1.1221 -3.69964 12.103
          }
        }
      }
    }
  }
  JOINT lButtock
  {
    OFFSET 8.77824 4.35084 1.2192
    CHANNELS 3 Zrotation Xrotation Yrotation
    JOINT lThigh
    {
      OFFSET 0 -1.70687 -2.19456
      CHANNELS 3 Zrotation Xrotation Yrotation
      JOINT lShin
      {
        OFFSET 0 -36.8199 0.73152
        CHANNELS 3 Zrotation Xrotation Yrotation
        JOINT lFoot
        {
          OFFSET -0.73152 -45.1104 -5.12064
          CHANNELS 3 Zrotation Xrotation Yrotation
          End Site
          {
            OFFSET 1.1221 -3.69964 12.103
          }
        }
      }
    }
  }
}
MOTION
Frames:	4
Frame Time:	0.00833333
122.401 78.2996 -6.05196 176.927 -7.3729 -159.555 -8.57472 -29.1214 -13.4531 2.47974 17.3992 -3.73187 12.4157 11.1483 -2.00377 -24.8613 4.17269 0.854228 -0.0 0.0 0.0 -0.0 0.0 0.0 5.25171e-16 -3.81123e-14 -1.80549e-13 81.0325 -12.2598 -15.3254 -10.3393 -4.35005 18.4394 -0.117384 9.74954 1.38361 -2.04535e-10 -1.35779e-09 -7.03099e-10 -3.58788e-10 -2.35068e-09 -1.21498e-09 -2.04527e-10 -1.35779e-09 -7.03107e-10 7.73091 5.47488 0.417314 -2.04537e-10 -1.35779e-09 -7.03096e-10 2.90554 0.965183 0.102902 -2.0453e-10 -1.35779e-09 -7.03101e-10 10.2786 0.731801 0.0259123 -2.04542e-10 -1.35779e-09 -7.03088e-10 2.22167 -0.733487 -0.20892 5.24683e-16 -3.81098e-14 -1.80672e-13 -65.8708 32.9648 -15.7247 15.7422 -8.44913 -29.1322 0.00398976 -1.77815 0.249986 4.27695e-10 5.59991e-10 -1.06475e-10 7.3805e-10 9.66703e-10 -1.8433e-10 4.27686e-10 5.59961e-10 -1.06468e-10 -7.73091 5.47488 -0.417314 4.27691e-10 5.59984e-10 -1.06475e-10 -2.90554 0.965183 -0.102902 4.27687e-10 5.59984e-10 -1.06477e-10 -10.2786 0.731801 -0.0259123 4.27697e-10 5.59982e-10 -1.06485e-10 -2.22167 -0.733487 0.20892 -2.03217e-16 0.0 -3.88251e-19 -3.40045 -47.0668 8.06495 -0.0705332 11.3472 -0.288176 -1.28552 -1.0934 -13.5002 2.03217e-16 0.0 3.88251e-19 -5.59593 -12.2396 -12.9631 0.149625 22.6386 -0.189761 -1.18498 -9.98952 -6.81771
122.556 78.2369 -7.03533 176.889 -7.1961 -159.591 -8.44549 -29.3228 -13.4504 2.42874 17.4095 -3.72947 12.452 11.2101 -2.04208 -24.9208 4.15581 0.791468 -0.0 0.0 0.0 -0.0 0.0 0.0 -2.30807e-14 -2.94215e-14 -2.17023e-13 81.1551 -12.2984 -15.3905 -10.3533 -4.35887 18.4657 -0.109974 9.41532 1.3354 2.63232e-11 -1.69733e-09 -1.59983e-09 3.18171e-11 -2.94238e-09 -2.76883e-09 2.63314e-11 -1.69733e-09 -1.59984e-09 7.73091 5.47488 0.417314 2.63213e-11 -1.69733e-09 -1.59983e-09 2.90554 0.965183 0.102902 2.63272e-11 -1.69733e-09 -1.59983e-09 10.2786 0.731801 0.0259123 2.63165e-11 -1.69733e-09 -1.59982e-09 2.22167 -0.733487 -0.20892 -2.30388e-14 -2.94194e-14 -2.17073e-13 -66.1806 32.9092 -15.2858 15.6546 -8.37028 -28.9469 0.00348357 -1.68504 0.236885 9.48549e-10 1.68688e-09 7.81876e-11 1.63936e-09 2.91623e-09 1.34716e-10 9.48542e-10 1.68685e-09 7.81971e-11 -7.73091 5.47488 -0.417314 9.48546e-10 1.68687e-09 7.81908e-11 -2.90554 0.965183 -0.102902 9.48541e-10 1.68687e-09 7.81876e-11 -10.2786 0.731801 -0.0259123 9.48551e-10 1.68687e-09 7.81812e-11 -2.22167 -0.733487 0.20892 -2.03217e-16 0.0 -3.88251e-19 -2.88097 -47.02 7.88017 -0.0740995 12.1393 -0.298276 -1.05684 -0.472269 -12.2453 2.03217e-16 0.0 3.88251e-19 -5.41449 -12.1761 -13.0018 0.157997 23.7522 -0.208596 -1.10304 -9.63465 -6.64669
122.738 78.1802 -8.03866 177.072 -7.0637 -159.642 -8.12443 -29.5363 -13.3247 2.3743 17.4165 -3.70435 12.4897 11.2746 -2.16088 -24.967 4.06712 0.527873 -0.0 0.0 0.0 -0.0 0.0 0.0 1.73323e-14 5.259e-14 -1.17521e-13 81.1746 -12.6697 -15.3591 -10.277 -4.31202 18.321 -0.109999 9.40854 1.33445 -3.70383e-10 -1.1527e-09 -2.22047e-09 -6.58497e-10 -2.00142e-09 -3.83771e-09 -3.70376e-10 -1.1527e-09 -2.22048e-09 7.73091 5.47488 0.417314 -3.70384e-10 -1.1527e-09 -2.22047e-09 2.90554 0.965183 0.102902 -3.70379e-10 -1.1527e-09 -2.22047e-09 10.2786 0.731801 0.0259123 -3.70389e-10 -1.1527e-09 -2.22046e-09 2.22167 -0.733487 -0.20892 1.73708e-14 5.25914e-14 -1.17569e-13 -66.5066 32.8247 -14.9317 15.5221 -8.25151 -28.6685 0.00293761 -1.51984 0.213646 3.97185e-10 1.25151e-09 1.98924e-10 6.88418e-10 2.16649e-09 3.43602e-10 3.97177e-10 1.25148e-09 1.98936e-10 -7.73091 5.47488 -0.417314 3.97183e-10 1.2515e-09 1.9893e-10 -2.90554 0.965183 -0.102902 3.97177e-10 1.2515e-09 1.98926e-10 -10.2786 0.731801 -0.0259123 3.97189e-10 1.2515e-09 1.98922e-10 -2.22167 -0.733487 0.20892 -2.03217e-16 0.0 -3.88251e-19 -2.15432 -47.1254 7.80189 -0.0769611 13.1678 -0.303004 -0.937764 -0.174059 -11.2537 2.03217e-16 0.0 3.88251e-19 -5.14671 -12.2519 -13.0541 0.168677 25.0538 -0.23148 -1.00224 -9.11077 -6.47194
122.944 78.1396 -8.96943 177.37 -6.8565 -159.597 -7.66075 -29.7519 -13.0995 2.31551 17.4194 -3.66004 12.5289 11.3398 -2.33832 -25.0015 3.9306 0.119303 -0.0 0.0 0.0 -0.0 0.0 0.0 9.75841e-14 1.8318e-13 7.01337e-14 81.1391 -13.248 -15.2522 -10.1424 -4.22935 18.0673 -0.1142 9.58833 1.36042 -1.15529e-09 -4.56633e-11 -2.73373e-09 -2.01801e-09 -8.58719e-11 -4.71625e-09 -1.15528e-09 -4.56628e-11 -2.73374e-09 7.73091 5.47488 0.417314 -1.15529e-09 -4.56634e-11 -2.73373e-09 2.90554 0.965183 0.102902 -1.15528e-09 -4.56642e-11 -2.73373e-09 10.2786 0.731801 0.0259123 -1.15529e-09 -4.56618e-11 -2.73372e-09 2.22167 -0.733487 -0.20892 9.75916e-14 1.8318e-13 7.00436e-14 -66.8461 32.7185 -14.6316 15.3529 -8.10017 -28.3167 0.00250527 -1.30194 0.183001 -8.14251e-10 -1.15228e-10 2.91278e-10 -1.40264e-09 -1.92245e-10 5.03623e-10 -8.1426e-10 -1.1525e-10 2.91293e-10 -7.73091 5.47488 -0.417314 -8.14253e-10 -1.15234e-10 2.91287e-10 -2.90554 0.965183 -0.102902 -8.14258e-10 -1.15236e-10 2.91283e-10 -10.2786 0.731801 -0.0259123 -8.14244e-10 -1.1523e-10 2.91282e-10 -2.22167 -0.733487 0.20892 -2.03217e-16 0.0 -3.88251e-19 -1.27456 -47.3367 7.83339 -0.0794617 14.3638 -0.304443 -0.882963 -0.116085 -10.4344 2.03217e-16 0.0 3.88251e-19 -4.81991 -12.4376 -13.1097 0.181919 26.5158 -0.25776 -0.885759 -8.45359 -6.27985
